M48
; DRILL file {KiCad (5.1.10)-1} date 06/23/21 14:44:54
; FORMAT={-:-/ absolute / inch / decimal}
; #@! TF.CreationDate,2021-06-23T14:44:54+02:00
; #@! TF.GenerationSoftware,Kicad,Pcbnew,(5.1.10)-1
FMAT,2
INCH
T1C0.0315
T2C0.0354
T3C0.0394
T4C0.0433
T5C0.0512
T6C0.1063
T7C0.1378
%
G90
G05
T1
X4.3Y-3.85
X4.4035Y-3.4636
X4.4465Y-3.8364
X4.55Y-3.45
X4.7Y-3.8
X4.7536Y-4.65
X5.1Y-3.8
X5.1Y-4.45
X5.1036Y-3.0
X5.2Y-5.3964
X5.4Y-5.05
X5.45Y-3.2
X5.85Y-2.5536
X6.0Y-5.4
X6.0Y-5.8
X6.05Y-2.9
X6.65Y-5.35
X6.7Y-2.5
X6.7Y-2.9
X6.85Y-5.6964
X7.25Y-5.1
X7.3Y-3.25
X7.5Y-2.9036
X7.5964Y-5.3
X7.6Y-3.85
X7.6Y-4.5
X7.9464Y-3.65
X8.0Y-4.5
T2
X5.5657Y-4.1657
X5.6657Y-4.1657
X5.6708Y-3.7736
X5.6708Y-4.5579
X5.7574Y-3.8236
X5.7574Y-4.5079
X5.9579Y-3.4866
X5.9579Y-4.8449
X6.0079Y-3.5732
X6.0079Y-4.7583
X6.35Y-3.3815
X6.35Y-3.4815
X6.35Y-4.85
X6.35Y-4.95
X6.6921Y-3.5732
X6.6921Y-4.7583
X6.7421Y-3.4866
X6.7421Y-4.8449
X6.9426Y-3.8236
X6.9426Y-4.5079
X7.0292Y-3.7736
X7.0292Y-4.5579
X7.0343Y-4.1657
X7.1343Y-4.1657
T3
X6.3Y-3.75
X6.3Y-3.85
X6.3Y-3.95
X6.3Y-4.05
X6.3Y-4.15
X6.3Y-4.25
X6.3Y-4.35
X6.3Y-4.45
X6.3Y-4.55
X6.3Y-4.65
X6.4Y-3.75
X6.4Y-3.85
X6.4Y-3.95
X6.4Y-4.05
X6.4Y-4.15
X6.4Y-4.25
X6.4Y-4.35
X6.4Y-4.45
X6.4Y-4.55
X6.4Y-4.65
T4
X4.307Y-4.5951
X4.3528Y-4.7662
X4.5541Y-4.5289
X4.6Y-4.7
X4.7157Y-4.0657
X4.7157Y-4.1657
X4.7157Y-4.2657
X4.8247Y-2.7253
X4.8847Y-3.4352
X4.8847Y-4.8963
X4.9347Y-3.3486
X4.9347Y-4.9829
X4.95Y-2.6
X4.9847Y-3.262
X4.9847Y-5.0695
X5.0057Y-2.9062
X5.131Y-2.781
X5.4463Y-5.5311
X5.4463Y-2.8004
X5.5329Y-2.7504
X5.5329Y-5.5811
X5.6195Y-5.6311
X5.6195Y-2.7004
X6.25Y-2.5315
X6.25Y-5.8
X6.35Y-2.5315
X6.35Y-5.8
X6.45Y-2.5315
X6.45Y-5.8
X7.0805Y-5.6311
X7.0805Y-2.7004
X7.1671Y-2.7504
X7.1671Y-5.5811
X7.2537Y-5.5311
X7.2537Y-2.8004
X7.7153Y-3.262
X7.7153Y-5.0695
X7.7653Y-3.3486
X7.7653Y-4.9829
X7.8153Y-3.4352
X7.8153Y-4.8963
X7.9843Y-4.0657
X7.9843Y-4.1657
X7.9843Y-4.2657
T5
X4.3657Y-4.0657
X4.3657Y-4.2657
X4.5816Y-3.2602
X4.5816Y-5.0713
X4.6816Y-3.087
X4.6816Y-5.2445
X5.2713Y-5.8342
X5.2713Y-2.4973
X5.4445Y-5.9342
X5.4445Y-2.3973
X6.25Y-2.1815
X6.25Y-6.15
X6.45Y-2.1815
X6.45Y-6.15
X6.7675Y-6.1113
X6.9607Y-6.0595
X7.2555Y-5.9342
X7.2555Y-2.3973
X7.4287Y-5.8342
X7.4287Y-2.4973
X8.0184Y-3.087
X8.0184Y-5.2445
X8.1184Y-3.2602
X8.1184Y-5.0713
X8.3343Y-4.0657
X8.3343Y-4.2657
T6
X4.95Y-5.6
X5.8479Y-2.2186
X7.75Y-5.5787
T7
X5.3717Y-4.1657
X5.5027Y-3.6766
X5.5027Y-4.6549
X5.8608Y-3.3185
X5.8608Y-5.013
X6.35Y-3.1874
X6.35Y-5.1441
X6.8392Y-3.3185
X6.8392Y-5.013
X7.1973Y-3.6766
X7.1973Y-4.6549
X7.3283Y-4.1657
T0
M30
